{
  "accessors": [
    {
      "bufferView": 2,
      "componentType": 5126,
      "count": 22989,
      "max": [
        0.16974999010562897,
        0.12199999392032623,
        0.011201669462025166
      ],
      "min": [
        -0.16974999010562897,
        -0.12199999392032623,
        -0.0002395643386989832
      ],
      "type": "VEC3"
    },
    {
      "bufferView": 2,
      "byteOffset": 275868,
      "componentType": 5126,
      "count": 22989,
      "max": [
        1.0,
        1.0,
        0.9997512102127075
      ],
      "min": [
        -1.0,
        -1.0,
        -1.0
      ],
      "type": "VEC3"
    },
    {
      "bufferView": 1,
      "componentType": 5126,
      "count": 22989,
      "max": [
        0.999229907989502,
        0.9726684093475342
      ],
      "min": [
        0.0007701287977397442,
        0.0007492059958167374
      ],
      "type": "VEC2"
    },
    {
      "bufferView": 0,
      "componentType": 5125,
      "count": 64704,
      "type": "SCALAR"
    },
    {
      "bufferView": 2,
      "byteOffset": 551736,
      "componentType": 5126,
      "count": 16,
      "max": [
        0.0567106157541275,
        -0.02568933181464672,
        0.007242014165967703
      ],
      "min": [
        -0.056710630655288696,
        -0.10341737419366837,
        0.005503487307578325
      ],
      "type": "VEC3"
    },
    {
      "bufferView": 2,
      "byteOffset": 551928,
      "componentType": 5126,
      "count": 16,
      "max": [
        7.745891150712225e-10,
        -0.02236119844019413,
        0.9997499585151672
      ],
      "min": [
        7.745891150712225e-10,
        -0.02236119844019413,
        0.9997499585151672
      ],
      "type": "VEC3"
    },
    {
      "bufferView": 1,
      "byteOffset": 183912,
      "componentType": 5126,
      "count": 16,
      "max": [
        0.6965455412864685,
        0.7424721121788025
      ],
      "min": [
        0.5673388838768005,
        0.5539801120758057
      ],
      "type": "VEC2"
    },
    {
      "bufferView": 0,
      "byteOffset": 258816,
      "componentType": 5125,
      "count": 42,
      "type": "SCALAR"
    },
    {
      "bufferView": 2,
      "byteOffset": 552120,
      "componentType": 5126,
      "count": 863,
      "max": [
        0.16972070932388306,
        0.10133445262908936,
        0.00847337581217289
      ],
      "min": [
        -0.16972070932388306,
        0.06082850322127342,
        0.0031340550631284714
      ],
      "type": "VEC3"
    },
    {
      "bufferView": 2,
      "byteOffset": 562476,
      "componentType": 5126,
      "count": 863,
      "max": [
        1.0,
        1.0,
        1.0
      ],
      "min": [
        -1.0,
        -1.0,
        -1.0
      ],
      "type": "VEC3"
    },
    {
      "bufferView": 1,
      "byteOffset": 184040,
      "componentType": 5126,
      "count": 863,
      "max": [
        0.8192123770713806,
        0.8688912391662598
      ],
      "min": [
        0.06133571267127991,
        0.4090205430984497
      ],
      "type": "VEC2"
    },
    {
      "bufferView": 0,
      "byteOffset": 258984,
      "componentType": 5125,
      "count": 1995,
      "type": "SCALAR"
    },
    {
      "bufferView": 2,
      "byteOffset": 572832,
      "componentType": 5126,
      "count": 1580,
      "max": [
        0.13660044968128204,
        0.09438535571098328,
        0.008493096567690372
      ],
      "min": [
        -0.1368836760520935,
        -0.007725140079855919,
        0.00616699643433094
      ],
      "type": "VEC3"
    },
    {
      "bufferView": 2,
      "byteOffset": 591792,
      "componentType": 5126,
      "count": 1580,
      "max": [
        2.6582148038301057e-08,
        -0.02277429774403572,
        0.999740719795227
      ],
      "min": [
        -2.345485583532536e-08,
        -0.022774377837777138,
        0.9997406601905823
      ],
      "type": "VEC3"
    },
    {
      "bufferView": 1,
      "byteOffset": 190944,
      "componentType": 5126,
      "count": 1580,
      "max": [
        0.8743141889572144,
        0.8700980544090271
      ],
      "min": [
        0.0007701287977397442,
        0.5539801120758057
      ],
      "type": "VEC2"
    },
    {
      "bufferView": 0,
      "byteOffset": 266964,
      "componentType": 5125,
      "count": 4266,
      "type": "SCALAR"
    },
    {
      "bufferView": 2,
      "byteOffset": 610752,
      "componentType": 5126,
      "count": 166,
      "max": [
        0.16749167442321777,
        0.24180269241333008,
        -9.603846606864863e-10
      ],
      "min": [
        -0.16749167442321777,
        0.00225831032730639,
        -0.0006981127662584186
      ],
      "type": "VEC3"
    },
    {
      "bufferView": 2,
      "byteOffset": 612744,
      "componentType": 5126,
      "count": 166,
      "max": [
        1.0,
        1.0,
        1.0
      ],
      "min": [
        -1.0,
        -1.0,
        -0.0001933723979163915
      ],
      "type": "VEC3"
    },
    {
      "bufferView": 1,
      "byteOffset": 203584,
      "componentType": 5126,
      "count": 166,
      "max": [
        0.9488345384597778,
        0.6581119894981384
      ],
      "min": [
        0.47790881991386414,
        0.00016696132661309093
      ],
      "type": "VEC2"
    },
    {
      "bufferView": 0,
      "byteOffset": 284028,
      "componentType": 5125,
      "count": 600,
      "type": "SCALAR"
    },
    {
      "bufferView": 2,
      "byteOffset": 614736,
      "componentType": 5126,
      "count": 818,
      "max": [
        0.16974999010562897,
        0.24406100809574127,
        -1.217188350111087e-09
      ],
      "min": [
        -0.16974999010562897,
        0.0,
        -0.004276256542652845
      ],
      "type": "VEC3"
    },
    {
      "bufferView": 2,
      "byteOffset": 624552,
      "componentType": 5126,
      "count": 818,
      "max": [
        0.9978591799736023,
        0.9978589415550232,
        1.0
      ],
      "min": [
        -0.9978591799736023,
        -0.9978588819503784,
        -1.0
      ],
      "type": "VEC3"
    },
    {
      "bufferView": 1,
      "byteOffset": 204912,
      "componentType": 5126,
      "count": 818,
      "max": [
        0.9998329877853394,
        0.987551212310791
      ],
      "min": [
        0.0001669613557169214,
        0.00016696132661309093
      ],
      "type": "VEC2"
    },
    {
      "bufferView": 0,
      "byteOffset": 286428,
      "componentType": 5125,
      "count": 1848,
      "type": "SCALAR"
    },
    {
      "bufferView": 2,
      "byteOffset": 634368,
      "componentType": 5126,
      "count": 28,
      "max": [
        0.1676555722951889,
        0.2419665902853012,
        -0.0042762551456689835
      ],
      "min": [
        -0.1676555722951889,
        0.0020944196730852127,
        -0.004276256542652845
      ],
      "type": "VEC3"
    },
    {
      "bufferView": 2,
      "byteOffset": 634704,
      "componentType": 5126,
      "count": 28,
      "max": [
        9.763121511241479e-08,
        -2.6700825994652178e-09,
        -1.0
      ],
      "min": [
        -1.0619946522183454e-07,
        -4.3777328428973306e-09,
        -1.0
      ],
      "type": "VEC3"
    },
    {
      "bufferView": 1,
      "byteOffset": 211456,
      "componentType": 5126,
      "count": 28,
      "max": [
        0.4734779894351959,
        0.6601639986038208
      ],
      "min": [
        0.004265433177351952,
        0.004263263661414385
      ],
      "type": "VEC2"
    },
    {
      "bufferView": 0,
      "byteOffset": 293820,
      "componentType": 5125,
      "count": 78,
      "type": "SCALAR"
    },
    {
      "bufferView": 2,
      "byteOffset": 635040,
      "componentType": 5126,
      "count": 4,
      "max": [
        0.15725678205490112,
        0.23197078704833984,
        -0.0006981126498430967
      ],
      "min": [
        -0.15725678205490112,
        0.02294299006462097,
        -0.0006981127662584186
      ],
      "type": "VEC3"
    },
    {
      "bufferView": 2,
      "byteOffset": 635088,
      "componentType": 5126,
      "count": 4,
      "max": [
        0.0,
        5.569370520319694e-10,
        1.0
      ],
      "min": [
        0.0,
        5.569370520319694e-10,
        1.0
      ],
      "type": "VEC3"
    },
    {
      "bufferView": 1,
      "byteOffset": 211680,
      "componentType": 5126,
      "count": 4,
      "max": [
        0.7613808512687683,
        1.0002402067184448
      ],
      "min": [
        0.09731006622314453,
        -0.000240325927734375
      ],
      "type": "VEC2"
    },
    {
      "bufferView": 0,
      "byteOffset": 294132,
      "componentType": 5125,
      "count": 6,
      "type": "SCALAR"
    },
    {
      "bufferView": 2,
      "byteOffset": 635136,
      "componentType": 5126,
      "count": 21058,
      "max": [
        0.20344197750091553,
        0.0932457447052002,
        0.0
      ],
      "min": [
        -0.06959215551614761,
        -0.008441241458058357,
        -0.0030000004917383194
      ],
      "type": "VEC3"
    },
    {
      "bufferView": 2,
      "byteOffset": 887832,
      "componentType": 5126,
      "count": 21058,
      "max": [
        0.9951862692832947,
        0.9951851963996887,
        1.0
      ],
      "min": [
        -0.9951860308647156,
        -0.995185136795044,
        -1.0
      ],
      "type": "VEC3"
    },
    {
      "bufferView": 1,
      "byteOffset": 211712,
      "componentType": 5126,
      "count": 21058,
      "max": [
        0.9949719309806824,
        0.6916124224662781
      ],
      "min": [
        0.0038434264715760946,
        0.3225788176059723
      ],
      "type": "VEC2"
    },
    {
      "bufferView": 0,
      "byteOffset": 294156,
      "componentType": 5125,
      "count": 55932,
      "type": "SCALAR"
    }
  ],
  "asset": {
    "extras": {
      "author": "Blaž Mraz (https://sketchfab.com/Mraz3D)",
      "license": "CC-BY-4.0 (http://creativecommons.org/licenses/by/4.0/)",
      "source": "https://sketchfab.com/3d-models/modern-slim-laptop-fbf172f8b14241feab581dcb1fbcd475",
      "title": "Modern Slim Laptop"
    },
    "generator": "Sketchfab-12.82.3",
    "version": "2.0"
  },
  "bufferViews": [
    {
      "buffer": 0,
      "byteLength": 517884,
      "name": "floatBufferViews",
      "target": 34963
    },
    {
      "buffer": 0,
      "byteLength": 380176,
      "byteOffset": 517884,
      "byteStride": 8,
      "name": "floatBufferViews",
      "target": 34962
    },
    {
      "buffer": 0,
      "byteLength": 1140528,
      "byteOffset": 898060,
      "byteStride": 12,
      "name": "floatBufferViews",
      "target": 34962
    }
  ],
  "buffers": [
    {
      "byteLength": 2038588,
      "uri": "scene.bin"
    }
  ],
  "images": [
    {
      "uri": "textures/Keyboard_baseColor.png"
    }
  ],
  "materials": [
    {
      "doubleSided": true,
      "name": "Base",
      "pbrMetallicRoughness": {
        "baseColorFactor": [
          0.8,
          0.8,
          0.8,
          1.0
        ],
        "roughnessFactor": 0.21166010488516723
      }
    },
    {
      "doubleSided": true,
      "name": "Touchpad",
      "pbrMetallicRoughness": {
        "baseColorFactor": [
          0.015876293507004053,
          0.015876293507004053,
          0.015876293507004053,
          1.0
        ],
        "metallicFactor": 0.0,
        "roughnessFactor": 0.2971437627238483
      }
    },
    {
      "doubleSided": true,
      "name": "Plastic_Black_Ports",
      "pbrMetallicRoughness": {
        "baseColorFactor": [
          0.00257938,
          0.00257938,
          0.00257938,
          1.0
        ],
        "metallicFactor": 0.0,
        "roughnessFactor": 0.9994232330980196
      }
    },
    {
      "doubleSided": true,
      "emissiveFactor": [
        1.0,
        1.0,
        1.0
      ],
      "name": "Lights",
      "pbrMetallicRoughness": {
        "baseColorFactor": [
          0.8,
          0.8,
          0.8,
          1.0
        ],
        "metallicFactor": 0.0,
        "roughnessFactor": 0.8040408205773457
      }
    },
    {
      "doubleSided": true,
      "name": "Screen_Frame",
      "pbrMetallicRoughness": {
        "baseColorFactor": [
          0.00637015,
          0.00637015,
          0.00637015,
          1.0
        ],
        "metallicFactor": 0.0,
        "roughnessFactor": 0.09600029257232022
      }
    },
    {
      "doubleSided": true,
      "name": "Screen_Shiny_Border",
      "pbrMetallicRoughness": {
        "baseColorFactor": [
          0.868886,
          0.868886,
          0.868886,
          1.0
        ],
        "roughnessFactor": 0.2533216234052277
      }
    },
    {
      "doubleSided": true,
      "name": "Screen",
      "pbrMetallicRoughness": {
        "baseColorFactor": [
          0.0,
          0.0,
          0.0,
          1.0
        ],
        "metallicFactor": 0.0,
        "roughnessFactor": 0.0
      }
    },
    {
      "alphaMode": "BLEND",
      "doubleSided": true,
      "name": "Keyboard",
      "pbrMetallicRoughness": {
        "baseColorFactor": [
          0.005572829822086463,
          0.005572829822086463,
          0.005572829822086463,
          1.0
        ],
        "baseColorTexture": {
          "index": 0
        },
        "metallicFactor": 0.0,
        "roughnessFactor": 0.5226682595604101
      }
    }
  ],
  "meshes": [
    {
      "name": "Modern Slim Laptop_Base_0",
      "primitives": [
        {
          "attributes": {
            "NORMAL": 1,
            "POSITION": 0,
            "TEXCOORD_0": 2
          },
          "indices": 3,
          "material": 0,
          "mode": 4
        }
      ]
    },
    {
      "name": "Modern Slim Laptop_Touchpad_0",
      "primitives": [
        {
          "attributes": {
            "NORMAL": 5,
            "POSITION": 4,
            "TEXCOORD_0": 6
          },
          "indices": 7,
          "material": 1,
          "mode": 4
        }
      ]
    },
    {
      "name": "Modern Slim Laptop_Plastic Black Ports_0",
      "primitives": [
        {
          "attributes": {
            "NORMAL": 9,
            "POSITION": 8,
            "TEXCOORD_0": 10
          },
          "indices": 11,
          "material": 2,
          "mode": 4
        }
      ]
    },
    {
      "name": "Modern Slim Laptop_Lights_0",
      "primitives": [
        {
          "attributes": {
            "NORMAL": 13,
            "POSITION": 12,
            "TEXCOORD_0": 14
          },
          "indices": 15,
          "material": 3,
          "mode": 4
        }
      ]
    },
    {
      "name": "Screen Frame_Screen Frame_0",
      "primitives": [
        {
          "attributes": {
            "NORMAL": 17,
            "POSITION": 16,
            "TEXCOORD_0": 18
          },
          "indices": 19,
          "material": 4,
          "mode": 4
        }
      ]
    },
    {
      "name": "Screen Frame_Screen Shiny Border_0",
      "primitives": [
        {
          "attributes": {
            "NORMAL": 21,
            "POSITION": 20,
            "TEXCOORD_0": 22
          },
          "indices": 23,
          "material": 5,
          "mode": 4
        }
      ]
    },
    {
      "name": "Screen Frame_Base_0",
      "primitives": [
        {
          "attributes": {
            "NORMAL": 25,
            "POSITION": 24,
            "TEXCOORD_0": 26
          },
          "indices": 27,
          "material": 0,
          "mode": 4
        }
      ]
    },
    {
      "name": "Screen_Screen_0",
      "primitives": [
        {
          "attributes": {
            "NORMAL": 29,
            "POSITION": 28,
            "TEXCOORD_0": 30
          },
          "indices": 31,
          "material": 6,
          "mode": 4
        }
      ]
    },
    {
      "name": "Keyboard_Keyboard_0",
      "primitives": [
        {
          "attributes": {
            "NORMAL": 33,
            "POSITION": 32,
            "TEXCOORD_0": 34
          },
          "indices": 35,
          "material": 7,
          "mode": 4
        }
      ]
    }
  ],
  "nodes": [
    {
      "children": [
        1
      ],
      "matrix": [
        1.0,
        0.0,
        0.0,
        0.0,
        0.0,
        2.220446049250313e-16,
        -1.0,
        0.0,
        0.0,
        1.0,
        2.220446049250313e-16,
        0.0,
        0.0,
        0.0,
        0.0,
        1.0
      ],
      "name": "Sketchfab_model"
    },
    {
      "children": [
        2
      ],
      "matrix": [
        0.009999999776482582,
        0.0,
        0.0,
        0.0,
        0.0,
        0.0,
        0.009999999776482582,
        0.0,
        0.0,
        -0.009999999776482582,
        0.0,
        0.0,
        0.0,
        0.0,
        0.0,
        1.0
      ],
      "name": "Modern Slim Laptop.fbx"
    },
    {
      "children": [
        3
      ],
      "name": "RootNode"
    },
    {
      "children": [
        4,
        5,
        6,
        7,
        8,
        14
      ],
      "matrix": [
        100.0,
        0.0,
        0.0,
        0.0,
        0.0,
        -1.629206793918314e-05,
        -99.99999999999868,
        0.0,
        0.0,
        99.99999999999868,
        -1.629206793918314e-05,
        0.0,
        0.0,
        0.024079298600554466,
        0.0,
        1.0
      ],
      "name": "Modern Slim Laptop"
    },
    {
      "mesh": 0,
      "name": "Modern Slim Laptop_Base_0"
    },
    {
      "mesh": 1,
      "name": "Modern Slim Laptop_Touchpad_0"
    },
    {
      "mesh": 2,
      "name": "Modern Slim Laptop_Plastic Black Ports_0"
    },
    {
      "mesh": 3,
      "name": "Modern Slim Laptop_Lights_0"
    },
    {
      "children": [
        9,
        10,
        11,
        12
      ],
      "matrix": [
        1.0,
        2.728411409933695e-18,
        2.913007186100625e-17,
        0.0,
        -2.9050881398087817e-17,
        0.21073354055278992,
        0.9775435411714846,
        0.0,
        -3.471542228387783e-18,
        -0.9775435411714846,
        0.21073354055278992,
        0.0,
        8.835242138475332e-27,
        0.12199685722589493,
        0.007852381095290184,
        1.0
      ],
      "name": "Screen Frame"
    },
    {
      "mesh": 4,
      "name": "Screen Frame_Screen Frame_0"
    },
    {
      "mesh": 5,
      "name": "Screen Frame_Screen Shiny Border_0"
    },
    {
      "mesh": 6,
      "name": "Screen Frame_Base_0"
    },
    {
      "children": [
        13
      ],
      "matrix": [
        1.0,
        8.271805337439744e-24,
        1.6543620120410303e-24,
        0.0,
        -8.271806693294298e-24,
        1.0000001192092645,
        2.2351741613135798e-07,
        0.0,
        -1.6543603603637535e-24,
        -2.2351741613135798e-07,
        1.0000001192092645,
        0.0,
        -2.8434333556510326e-25,
        -5.587935447692871e-09,
        7.450580596923828e-09,
        1.0
      ],
      "name": "Screen"
    },
    {
      "mesh": 7,
      "name": "Screen_Screen_0"
    },
    {
      "children": [
        15
      ],
      "matrix": [
        1.0,
        -5.759460857341544e-20,
        5.05691490810312e-18,
        0.0,
        -5.758812660243315e-20,
        0.9997406315444802,
        0.022774319727356614,
        0.0,
        -5.0569149819239334e-18,
        -0.022774319727356614,
        0.9997406315444802,
        0.0,
        -0.06706652045249939,
        0.0008800496580079198,
        0.008945761248469353,
        1.0
      ],
      "name": "Keyboard"
    },
    {
      "mesh": 8,
      "name": "Keyboard_Keyboard_0"
    }
  ],
  "samplers": [
    {
      "magFilter": 9729,
      "minFilter": 9729,
      "wrapS": 10497,
      "wrapT": 10497
    }
  ],
  "scene": 0,
  "scenes": [
    {
      "name": "Sketchfab_Scene",
      "nodes": [
        0
      ]
    }
  ],
  "textures": [
    {
      "sampler": 0,
      "source": 0
    }
  ]
}
